<?xml version="1.0" encoding="utf-8"?>
<!-- Generator: Adobe Illustrator 23.0.1, SVG Export Plug-In . SVG Version: 6.00 Build 0)  -->
<svg version="1.1" id="Layer_1" xmlns="http://www.w3.org/2000/svg" xmlns:xlink="http://www.w3.org/1999/xlink" x="0px" y="0px"
	 viewBox="0 0 25.9 21.4" style="enable-background:new 0 0 25.9 21.4;" xml:space="preserve">
<style type="text/css">
	.st0{fill:none;}
	.st1{fill:#FFFFFF;}
</style>
<rect class="st0" width="25.9" height="21.4"/>
<path class="st1" d="M4.4,13.9l18-1c0.5,0,0.8-0.3,1-0.8l2.3-7.6c0.2-0.7-0.3-1.4-1-1.4H4.3V1.1C4.3,0.5,3.8,0,3.2,0H1.1
	C0.5,0,0,0.5,0,1.1s0.5,1.1,1.1,1.1h1.1v16.1c0,0.6,0.5,1.1,1.1,1.1l1.2,0c0.4,1.3,1.6,2.2,3,2.2c1.4,0,2.6-0.9,3-2.1h6.6
	c0.1,0,0.1,0,0.2,0c0.4,1.3,1.6,2.2,3,2.2c1.8,0,3.2-1.4,3.2-3.2S22.2,15,20.4,15c-1.4,0-2.6,0.9-3,2.2c-0.1,0-0.1,0-0.2,0h-6.6
	c-0.4-1.2-1.6-2.1-3-2.1c-1.4,0-2.6,0.9-3,2.1l-0.2,0L4.4,13.9C4.3,13.9,4.4,13.9,4.4,13.9z M4.3,5.4h18.9l-1.7,5.5L4.3,11.8V5.4z
	 M20.4,17.1c0.6,0,1.1,0.5,1.1,1.1s-0.5,1.1-1.1,1.1c-0.6,0-1.1-0.5-1.1-1.1S19.8,17.1,20.4,17.1z M6.5,18.2c0-0.6,0.5-1,1.1-1
	c0.6,0,1.1,0.5,1.1,1.1s-0.5,1.1-1.1,1.1C6.9,19.3,6.5,18.8,6.5,18.2C6.5,18.2,6.5,18.2,6.5,18.2C6.5,18.2,6.5,18.2,6.5,18.2z"/>
</svg>
